<?xml version="1.0" encoding="utf-8"?>
<!-- Generator: Adobe Illustrator 27.1.1, SVG Export Plug-In . SVG Version: 6.00 Build 0)  -->
<svg version="1.1" id="레이어_1" xmlns="http://www.w3.org/2000/svg" xmlns:xlink="http://www.w3.org/1999/xlink" x="0px"
	 y="0px" viewBox="0 0 1920 580" style="enable-background:new 0 0 1920 580;" xml:space="preserve">
<g>
</g>
<g>
	<g>
		<g>
			<g>
				<path d="M382.19,293.31c0.37,6.35,1.64,12.17,3.81,17.47c2.17,5.29,5.05,9.89,8.64,13.78c3.59,3.9,7.83,6.92,12.73,9.08
					c4.9,2.16,10.27,3.24,16.1,3.24c5.23,0,10.25-0.65,15.03-1.97c4.79-1.31,9.01-3.39,12.68-6.22c3.66-2.84,6.58-6.52,8.75-11.05
					c2.17-4.53,3.25-10.01,3.25-16.45c0-5.25-1.18-9.72-3.53-13.4c-2.36-3.68-5.46-6.86-9.31-9.53c-3.85-2.67-8.23-4.97-13.13-6.92
					c-4.9-1.95-9.86-3.77-14.87-5.46c-4.19-1.35-8.4-2.84-12.62-4.45c-4.23-1.61-8.3-3.43-12.23-5.46
					c-3.93-2.03-7.59-4.36-10.99-6.99c-3.4-2.62-6.36-5.72-8.86-9.27c-2.51-3.56-4.49-7.6-5.95-12.13
					c-1.46-4.53-2.19-9.76-2.19-15.69c0-7.37,1.27-13.86,3.82-19.5c2.54-5.63,6.11-10.35,10.71-14.16c4.6-3.81,10.1-6.71,16.49-8.7
					c6.4-1.99,13.41-2.99,21.04-2.99c6.81,0,12.83,0.76,18.06,2.29c5.23,1.52,9.8,3.6,13.69,6.22c3.89,2.63,7.18,5.7,9.87,9.21
					c2.69,3.52,4.9,7.22,6.62,11.11c1.72,3.9,2.99,7.92,3.82,12.07c0.82,4.15,1.35,8.13,1.57,11.94h-17.05
					c-0.45-5.93-1.7-11.13-3.76-15.62c-2.06-4.49-4.71-8.26-7.97-11.31c-3.25-3.05-7.01-5.34-11.28-6.86
					c-4.26-1.52-8.79-2.29-13.57-2.29c-4.41,0-8.73,0.51-12.96,1.52c-4.23,1.02-8,2.65-11.33,4.89c-3.33,2.25-6.02,5.19-8.08,8.83
					c-2.06,3.64-3.09,8.09-3.09,13.34c0,5.42,1.16,10.02,3.48,13.78c2.32,3.77,5.42,7.01,9.31,9.72c3.89,2.71,8.32,5.04,13.3,6.99
					c4.97,1.95,10.11,3.85,15.43,5.72c4.19,1.52,8.39,3.07,12.62,4.64c4.22,1.57,8.28,3.37,12.17,5.4c3.89,2.03,7.5,4.34,10.83,6.92
					c3.33,2.58,6.21,5.59,8.64,9.02c2.43,3.43,4.36,7.37,5.78,11.81c1.42,4.45,2.13,9.55,2.13,15.31c0,8.64-1.4,16.24-4.21,22.8
					c-2.8,6.56-6.71,12.05-11.72,16.45c-5.01,4.4-10.96,7.73-17.84,9.97c-6.88,2.24-14.4,3.37-22.55,3.37
					c-7.33,0-14.47-1.42-21.43-4.25c-6.96-2.84-13.15-6.86-18.57-12.07c-5.42-5.21-9.8-11.54-13.13-18.99
					c-3.33-7.45-5.1-15.83-5.33-25.15H382.19z"/>
			</g>
			<g>
				<path d="M562.96,353.71l-1.34-113.7l-37.88,0.09v-17.17h37.85l0.03-47.8h21.24v47.8h37.85l0,17.21l-37.57-0.18l1.33,113.75"/>
			</g>
			<g>
				<path d="M646.38,343.96l57.6-105.94h22.55L640.17,395.4c-2.8,5-6.04,9.25-9.72,12.77c-3.68,3.51-7.55,7.35-11.62,9.51
					c-4.08,2.16-8.25,3.73-12.52,4.7c-4.28,0.97-8.04,0.82-12.05,0.82c-3.61,0-6.93-0.11-10.43-0.15
					c-3.56-0.04-7.49-0.16-11.57-0.27v-15.69c2.6,0.15,7.94,0.21,11.37,0.34c3.39,0.13,9.18,0.55,12.63,0.03
					c3.38-0.51,6.75-1.04,9.62-2.6c2.87-1.57,7.67-4.42,10.34-7.56c2.67-3.13,5.38-7.07,8.12-11.81c2.74-4.74,5.71-10.29,8.91-16.64
					"/>
			</g>
			<g>
				<path d="M879.15,292.47c0.09,5.93,1.24,11.75,3.43,17.47c2.2,5.72,5.19,10.8,8.98,15.24c3.79,4.45,8.25,8.05,13.39,10.8
					c5.14,2.75,10.7,4.13,16.69,4.13c20.19,0,33.61-8.51,40.25-25.53h18.93c-1.59,6.61-4.26,12.51-7.99,17.72
					c-3.74,5.21-8.28,9.61-13.61,13.21c-5.33,3.6-11.22,6.33-17.67,8.19c-6.45,1.86-13.09,2.79-19.91,2.79
					c-9.82,0-18.68-1.91-26.58-5.72c-7.9-3.81-14.66-8.89-20.27-15.24c-5.61-6.35-9.91-13.7-12.9-22.04
					c-2.99-8.34-4.49-17.09-4.49-26.23c0-8.55,1.49-16.77,4.49-24.64c2.99-7.87,7.27-14.82,12.83-20.83
					c5.56-6.01,12.29-10.8,20.2-14.35c7.9-3.56,16.76-5.34,26.57-5.34c9.54,0,18.11,1.61,25.74,4.83
					c7.62,3.22,14.14,7.66,19.56,13.34c5.42,5.67,9.58,12.32,12.48,19.94c2.9,7.62,4.35,15.88,4.35,24.77v7.49H879.15z
					 M962.17,277.99c-0.19-5.42-1.29-10.5-3.3-15.24c-2.01-4.74-4.82-8.89-8.41-12.45c-3.6-3.56-7.97-6.35-13.11-8.38
					c-5.14-2.03-10.89-3.05-17.25-3.05c-5.8,0-11.17,1.1-16.13,3.3c-4.96,2.2-9.26,5.12-12.9,8.77c-3.65,3.64-6.52,7.81-8.63,12.51
					c-2.1,4.7-3.2,9.55-3.3,14.54H962.17z"/>
			</g>
			<g>
				<path d="M1064.88,177.64v160.05l50.03,0.07v17.08h-71.3v-177.2H1064.88z"/>
			</g>
			<g>
				<path d="M1194.9,225.14v129.31l-21.02-0.56V224.58L1194.9,225.14z"/>
			</g>
			<g>
				<path d="M1263.09,225.14h20.76v10.28c2.61-1.71,8.99-4.54,16.98-7.59c8.47-3.23,20.42-5.22,22.06-5.24
					c6.64-0.1,17.25-0.12,22.26,0.79c5.44,0.98,12.97,4.27,16.59,6.7c4.08,2.74,10,10.09,11.92,14.79c1.91,4.7,2.04,9.99,2.04,15.84
					v93.74h-20.76v-91.33c0-4.4-0.59-8.11-1.75-11.11c-1.17-3-2.85-5.44-5.05-7.3c-2.2-1.86-4.89-3.22-8.06-4.06
					c-3.18-0.85-6.73-1.27-10.66-1.27c-6.36,0-12.3,1.02-17.81,3.05c-5.52,2.03-10.17,3.55-14.26,6.06
					c-4.52,2.77-6.86,3.99-9.56,8.3c-1.79,2.85-2.74,7.44-2.92,11.48l-1.02,86.2h-20.76V225.14z"/>
			</g>
			<g>
				<path d="M1495,272.02l52.59,82.44h-24.26l-43.06-68.97l-25.66,23.37v45.6h-20.75V176.37h20.75v107.46l66.48-58.69h25.52
					L1495,272.02z"/>
			</g>
		</g>
		<g>
			<path d="M773.08,354.83v-177.2h21.27v177.2"/>
		</g>
	</g>
</g>
</svg>
